# xmcd CD database file
#
# Track frame offsets:
#	150
#	18620
#	37745
#	59765
#	82677
#	104070
#	125415
#	146125
#	162505
#	184800
#
# Disc length: 2681 seconds
#
# Revision: 0
# Processed by: cddbd v1.5.1PL0 Copyright (c) Steve Scherf et al.
# Submitted via: CDex 1.51
#
DISCID=8a0a770a
DTITLE=円谷優子 - ナインティーン・トゥエンティ
DYEAR=1990
DGENRE=Pop
TTITLE0=イバラ姫
TTITLE1=映画に行こう
TTITLE2=19才
TTITLE3=Endless Pain
TTITLE4=紙のライオン
TTITLE5=せつないかもしれない
TTITLE6=スカートのポケット
TTITLE7=満月
TTITLE8=君でなければ
TTITLE9=片想い
EXTD=YEAR: 1990
EXTT0=
EXTT1=
EXTT2=
EXTT3=
EXTT4=
EXTT5=
EXTT6=
EXTT7=
EXTT8=
EXTT9=
PLAYORDER=
